<?xml version="1.0" encoding="UTF-8" standalone="no"?>
<!-- Created with Inkscape (http://www.inkscape.org/) -->

<svg
   width="568.62976mm"
   height="137.38162mm"
   viewBox="0 0 568.62975 137.38161"
   version="1.1"
   id="svg1"
   xml:space="preserve"
   inkscape:version="1.3.2 (091e20e, 2023-11-25, custom)"
   sodipodi:docname="logo2.svg"
   xmlns:inkscape="http://www.inkscape.org/namespaces/inkscape"
   xmlns:sodipodi="http://sodipodi.sourceforge.net/DTD/sodipodi-0.dtd"
   xmlns:xlink="http://www.w3.org/1999/xlink"
   xmlns="http://www.w3.org/2000/svg"
   xmlns:svg="http://www.w3.org/2000/svg"><sodipodi:namedview
     id="namedview1"
     pagecolor="#ffffff"
     bordercolor="#000000"
     borderopacity="0.25"
     inkscape:showpageshadow="2"
     inkscape:pageopacity="0.0"
     inkscape:pagecheckerboard="0"
     inkscape:deskcolor="#d1d1d1"
     inkscape:document-units="mm"
     inkscape:zoom="0.51717104"
     inkscape:cx="841.11438"
     inkscape:cy="540.44016"
     inkscape:window-width="1920"
     inkscape:window-height="1017"
     inkscape:window-x="-8"
     inkscape:window-y="-8"
     inkscape:window-maximized="1"
     inkscape:current-layer="layer1"><inkscape:page
       x="0"
       y="0"
       width="568.62976"
       height="137.38162"
       id="page1"
       margin="0 0 0 0"
       bleed="0" /></sodipodi:namedview><defs
     id="defs1"><linearGradient
       id="swatch23"
       inkscape:swatch="solid"><stop
         style="stop-color:#000000;stop-opacity:1;"
         offset="0"
         id="stop23" /></linearGradient><linearGradient
       id="linearGradient16"
       inkscape:collect="always"><stop
         style="stop-color:#f5ff00;stop-opacity:1;"
         offset="0"
         id="stop17" /><stop
         style="stop-color:#ffba1d;stop-opacity:1;"
         offset="0"
         id="stop19" /><stop
         style="stop-color:#ff00ff;stop-opacity:1;"
         offset="0.41240755"
         id="stop20" /><stop
         style="stop-color:#8018e6;stop-opacity:0.91282052;"
         offset="0.6537503"
         id="stop21" /><stop
         style="stop-color:#0c77ff;stop-opacity:1;"
         offset="0.95047164"
         id="stop18" /></linearGradient><linearGradient
       inkscape:collect="always"
       xlink:href="#linearGradient16"
       id="linearGradient18"
       x1="254.27142"
       y1="431.33337"
       x2="569.43561"
       y2="431.33337"
       gradientUnits="userSpaceOnUse"
       gradientTransform="matrix(0.5241611,0,0,0.5241611,-110.17303,-120.46469)" /></defs><g
     inkscape:label="Warstwa 1"
     inkscape:groupmode="layer"
     id="layer1"
     transform="translate(-14.836323,-38.369801)"><path
       style="display:inline;fill:url(#linearGradient18);fill-opacity:1;stroke:#000000;stroke-width:0;stroke-miterlimit:0;stroke-dasharray:none;stroke-opacity:0"
       d="m 28.425267,170.25592 c -2.508453,-0.11405 -4.703345,-0.1573 -4.877546,-0.0959 -0.517299,0.18245 -0.380835,-2.23108 0.293631,-5.1933 0.998615,-4.38585 28.775937,-97.79612 29.61141,-99.577964 0.940624,-2.006097 3.523306,-4.696994 5.440623,-5.668567 2.566304,-1.300444 4.148198,-1.501928 10.433496,-1.328896 7.811903,0.215058 17.511443,-0.224345 18.952406,-0.858571 2.25731,-0.993532 2.575803,-2.822057 1.359274,-7.803855 -0.405818,-1.661907 -0.882272,-3.881132 -1.058789,-4.931624 -0.290189,-1.726996 -0.278275,-1.975064 0.123968,-2.589219 1.000472,-1.526876 1.061281,-1.532747 14.84826,-1.432884 12.49643,0.09052 12.54815,0.09305 14.15397,0.696011 3.39497,1.274752 6.27771,3.756126 7.75848,6.678323 0.32349,0.638386 1.1067,2.868536 1.74043,4.955886 1.26754,4.174901 6.5742,22.834442 7.63675,26.852669 0.48337,1.827944 0.84569,2.692607 1.30067,3.103899 1.29803,1.173474 3.47748,0.398336 4.60075,-1.636313 0.31781,-0.575644 1.55138,-4.846994 2.74125,-9.491911 5.41968,-21.156578 6.10027,-23.53723 7.15899,-25.041623 1.96698,-2.794995 6.04987,-5.182256 9.94367,-5.814045 0.96175,-0.15605 6.65158,-0.264003 13.9745,-0.265139 11.89763,-0.0022 12.37035,0.01625 12.84486,0.490713 1.29806,1.298064 1.0035,4.097131 -1.24996,11.877471 -2.14532,7.406946 -12.49477,42.513286 -20.78483,70.504229 -3.32569,11.22903 -6.18255,20.9778 -6.34856,21.66393 -0.73017,3.0178 -2.62226,5.43226 -5.17164,6.59939 -2.42793,1.11155 -3.57282,1.18752 -14.31951,0.95021 -15.10312,-0.33352 -14.6722,-0.3458 -15.87894,0.45317 -2.1174,1.40193 -2.30679,3.15503 -0.9429,8.72766 1.28899,5.26654 1.04043,6.66981 -1.37949,7.7883 -1.11742,0.51647 -1.61235,0.55048 -9.03691,0.62105 -4.32012,0.041 -10.20133,-0.0179 -13.069357,-0.1301 l -5.21461,-0.20492 -1.89055,-0.93436 c -1.258897,-0.62216 -2.421376,-1.46516 -3.479134,-2.52293 -2.814395,-2.81439 -3.231214,-3.97585 -9.668392,-26.94107 -1.562491,-5.57434 -3.08475,-10.58696 -3.382782,-11.13915 -0.661009,-1.22466 -1.731908,-1.9088 -2.363987,-1.51021 -0.95664,0.60324 -1.422929,1.82024 -3.633053,9.48211 -4.88176,16.92372 -7.373096,24.94576 -8.287704,26.68628 -1.090003,2.07426 -3.24746,4.34106 -5.188852,5.45181 -2.874058,1.64438 -4.276995,1.81937 -14.238135,1.77593 -4.890094,-0.0214 -10.94345,-0.13214 -13.451904,-0.24641 z m 91.967613,-21.66371 c 0.63064,-0.24199 1.60216,-2.37867 2.15015,-4.72879 0.27115,-1.16291 1.80082,-6.49664 3.39923,-11.85272 3.34349,-11.20338 7.58248,-25.71918 8.91129,-30.51537 1.14403,-4.129313 1.25265,-6.293103 0.40372,-8.043033 -0.62604,-1.29048 -1.57819,-2.11608 -2.86658,-2.48559 -0.48945,-0.14046 -6.02371,-0.11966 -14.12488,0.0529 -14.85694,0.31648 -14.86504,0.31585 -16.43832,-1.25743 -0.9801,-0.9801 -1.80265,-3.270815 -6.484017,-18.057304 -1.76996,-5.590552 -2.55306,-6.848697 -4.031777,-6.477561 -0.967171,0.242742 -1.864189,1.965114 -2.612223,5.015762 -0.3534,1.441217 -2.109136,7.6373 -3.901632,13.769064 -7.339403,25.106552 -9.388147,32.225422 -9.535382,33.133092 -0.296218,1.82616 0.890389,3.7777 2.825096,4.64627 0.278719,0.12527 6.948904,0.28453 14.822678,0.3542 l 14.315907,0.12683 1.22356,0.7192 c 2.3937,1.40701 3.63623,4.18363 6.25458,13.97678 2.7636,10.33626 3.75654,12.36522 5.6886,11.62382 z"
       id="path5" /><text
       xml:space="preserve"
       style="font-style:normal;font-variant:normal;font-weight:normal;font-stretch:normal;font-size:69.2601px;font-family:Arial;-inkscape-font-specification:'Arial, Normal';font-variant-ligatures:normal;font-variant-caps:normal;font-variant-numeric:normal;font-variant-east-asian:normal;opacity:1;fill:#ffffff;fill-opacity:1;stroke:#ffffff;stroke-width:2.28477;stroke-miterlimit:0;stroke-dasharray:none;stroke-opacity:1"
       x="197.6682"
       y="137.57985"
       id="text78"
       transform="scale(1.0446391,0.95726841)"><tspan
         id="tspan78"
         style="font-style:normal;font-variant:normal;font-weight:normal;font-stretch:normal;font-size:69.2601px;font-family:Arial;-inkscape-font-specification:'Arial, Normal';font-variant-ligatures:normal;font-variant-caps:normal;font-variant-numeric:normal;font-variant-east-asian:normal;fill:#ffffff;fill-opacity:1;stroke:#ffffff;stroke-width:2.28477;stroke-dasharray:none;stroke-opacity:1"
         x="197.6682"
         y="137.57985"
         sodipodi:role="line">BeEfficient</tspan><tspan
         style="font-style:normal;font-variant:normal;font-weight:normal;font-stretch:normal;font-size:69.2601px;font-family:Arial;-inkscape-font-specification:'Arial, Normal';font-variant-ligatures:normal;font-variant-caps:normal;font-variant-numeric:normal;font-variant-east-asian:normal;fill:#ffffff;fill-opacity:1;stroke:#ffffff;stroke-width:2.28477;stroke-dasharray:none;stroke-opacity:1"
         x="197.6682"
         y="224.15497"
         id="tspan79"
         sodipodi:role="line" /></text></g></svg>
